<?xml version="1.0" encoding="UTF-8" standalone="no"?>
<!DOCTYPE svg PUBLIC "-//W3C//DTD SVG 1.1//EN" "http://www.w3.org/Graphics/SVG/1.1/DTD/svg11.dtd">
<svg xmlns="http://www.w3.org/2000/svg" version="1.1" viewBox="0.00 0.00 293.00 117.00">
<g stroke-width="2.00" fill="none" stroke-linecap="butt">
<path stroke="#99ca7d" vector-effect="non-scaling-stroke" d="
  M 56.54 20.15
  Q 55.89 24.61 55.88 28.86
  Q 55.88 31.07 55.19 33.54
  Q 54.52 35.91 54.30 38.26"
/>
<path stroke="#99ca7d" vector-effect="non-scaling-stroke" d="
  M 20.94 50.69
  Q 20.77 50.20 20.30 51.06
  Q 20.13 51.36 20.14 51.73
  Q 20.57 65.37 19.76 78.67"
/>
<path stroke="#99ca7d" vector-effect="non-scaling-stroke" d="
  M 202.39 14.59
  Q 200.83 37.00 202.47 58.94"
/>
<path stroke="#99ca7d" vector-effect="non-scaling-stroke" d="
  M 210.64 64.71
  Q 211.70 73.06 210.45 80.66"
/>
<path stroke="#99ca7d" vector-effect="non-scaling-stroke" d="
  M 203.43 79.97
  L 191.20 75.65"
/>
<path stroke="#99ca7d" vector-effect="non-scaling-stroke" d="
  M 182.96 41.88
  Q 183.08 41.50 182.83 41.44
  Q 180.87 41.00 178.86 41.73"
/>
<path stroke="#99ca7d" vector-effect="non-scaling-stroke" d="
  M 196.53 97.57
  L 196.15 115.67
  Q 196.15 115.84 196.32 115.89
  Q 196.45 115.93 196.50 116.10"
/>
<path stroke="#99ca7d" vector-effect="non-scaling-stroke" d="
  M 20.57 16.59
  Q 19.82 24.51 20.32 32.24
  Q 20.38 33.17 20.83 32.97"
/>
<path stroke="#99ca7d" vector-effect="non-scaling-stroke" d="
  M 292.22 46.09
  L 291.78 60.25"
/>
<path stroke="#99ca7d" vector-effect="non-scaling-stroke" d="
  M 292.66 97.56
  Q 291.16 104.39 293.00 110.94"
/>
</g>
<path fill="#68b654" d="
  M 56.54 20.15
  Q 55.89 24.61 55.88 28.86
  Q 55.88 31.07 55.19 33.54
  Q 54.52 35.91 54.30 38.26
  Q 50.87 45.22 43.19 48.44
  A 0.77 0.76 60.7 0 0 42.87 49.60
  L 63.57 77.64
  A 0.68 0.67 71.7 0 1 63.03 78.72
  L 40.47 78.71
  A 1.05 1.05 0.0 0 1 39.58 78.22
  Q 30.73 63.88 23.47 52.01
  Q 22.47 50.39 20.94 50.69
  Q 20.77 50.20 20.30 51.06
  Q 20.13 51.36 20.14 51.73
  Q 20.57 65.37 19.76 78.67
  L 1.99 78.65
  A 1.18 1.17 -0.0 0 1 0.81 77.48
  L 0.83 1.45
  A 1.26 1.26 0.0 0 1 2.12 0.19
  Q 13.51 0.48 24.63 0.18
  Q 36.31 -0.14 42.35 1.96
  Q 54.31 6.11 56.54 20.15
  Z
  M 20.57 16.59
  Q 19.82 24.51 20.32 32.24
  Q 20.38 33.17 20.83 32.97
  L 21.03 33.94
  Q 21.14 34.45 21.66 34.44
  C 25.54 34.37 30.19 34.84 33.52 32.71
  C 38.46 29.56 37.71 18.50 31.51 16.99
  Q 27.47 16.01 20.57 16.59
  Z"
/>
<path fill="#68b654" d="
  M 202.39 14.59
  Q 200.83 37.00 202.47 58.94
  Q 205.69 64.79 210.64 64.71
  Q 211.70 73.06 210.45 80.66
  Q 206.03 80.88 203.43 79.97
  L 191.20 75.65
  Q 187.16 72.84 185.22 68.37
  Q 183.89 65.32 183.69 59.42
  Q 183.39 51.09 183.65 42.75
  Q 183.67 42.02 182.96 41.88
  Q 183.08 41.50 182.83 41.44
  Q 180.87 41.00 178.86 41.73
  Q 178.63 41.84 178.20 41.77
  A 0.57 0.56 -85.9 0 1 177.72 41.21
  L 177.72 26.22
  A 0.70 0.70 0.0 0 1 178.40 25.52
  L 182.88 25.38
  A 0.76 0.76 0.0 0 0 183.62 24.62
  L 183.62 10.21
  A 0.67 0.66 -0.0 0 1 184.29 9.55
  L 202.00 9.53
  A 0.72 0.71 -3.1 0 1 202.71 10.16
  Q 203.01 12.62 202.39 14.59
  Z"
/>
<path fill="#cadda5" d="
  M 202.39 14.59
  Q 203.22 37.03 202.47 58.94
  Q 200.83 37.00 202.39 14.59
  Z"
/>
<path fill="#cadda5" d="
  M 20.57 16.59
  L 20.83 32.97
  Q 20.38 33.17 20.32 32.24
  Q 19.82 24.51 20.57 16.59
  Z"
/>
<path fill="#cadda5" d="
  M 56.54 20.15
  Q 57.92 30.08 54.30 38.26
  Q 54.52 35.91 55.19 33.54
  Q 55.88 31.07 55.88 28.86
  Q 55.89 24.61 56.54 20.15
  Z"
/>
<path fill="#68b654" d="
  M 150.86 42.29
  C 151.75 42.71 152.68 43.33 153.63 43.54
  Q 158.37 44.59 162.67 46.24
  C 169.66 48.91 173.13 54.70 172.34 62.24
  Q 171.60 69.24 167.46 73.41
  C 160.34 80.55 148.41 82.07 138.61 79.48
  Q 132.00 77.73 127.27 74.57
  Q 126.82 74.27 127.06 73.80
  L 133.02 61.99
  A 1.26 1.26 0.0 0 1 134.86 61.51
  C 139.19 64.49 148.90 68.66 152.97 64.03
  C 154.82 61.93 152.43 59.43 150.42 58.86
  C 143.60 56.92 133.56 56.06 131.43 47.57
  Q 129.03 38.06 135.02 30.86
  C 142.99 21.26 159.56 22.25 170.28 26.58
  A 0.74 0.73 -65.4 0 1 170.65 27.59
  L 165.15 38.47
  Q 164.51 39.72 163.27 39.08
  C 160.03 37.41 152.17 34.82 149.80 38.93
  A 2.39 2.39 0.0 0 0 150.86 42.29
  Z"
/>
<path fill="#68b654" d="
  M 83.32 56.18
  Q 84.04 68.00 96.15 66.65
  Q 101.95 66.00 103.02 60.33
  A 1.77 1.76 -84.3 0 1 104.76 58.90
  L 120.49 58.93
  A 0.90 0.90 0.0 0 1 121.39 59.85
  C 121.05 73.16 110.76 78.45 99.22 80.28
  C 83.89 82.71 66.89 73.88 64.75 57.57
  C 62.77 42.45 68.58 28.91 84.07 24.63
  Q 93.62 21.98 103.95 24.95
  C 111.58 27.13 117.03 33.04 119.45 40.66
  Q 121.74 47.86 121.41 54.90
  A 0.47 0.46 1.3 0 1 120.94 55.34
  L 83.95 55.50
  A 0.64 0.64 0.0 0 0 83.32 56.18
  Z
  M 83.88 44.01
  L 103.58 43.97
  A 0.01 0.01 0.0 0 0 103.59 43.96
  L 103.59 43.91
  A 9.69 8.00 -0.1 0 0 93.88 35.93
  L 93.54 35.93
  A 9.69 8.00 -0.1 0 0 83.87 43.95
  L 83.87 44.00
  A 0.01 0.01 0.0 0 0 83.88 44.01
  Z"
/>
<path fill="#68b654" d="
  M 292.22 46.09
  L 291.78 60.25
  Q 287.55 73.79 274.34 78.59
  Q 262.82 82.79 250.61 79.08
  Q 243.44 76.90 238.09 71.12
  C 229.89 62.24 228.32 49.61 233.97 38.84
  Q 239.24 28.79 251.05 24.98
  C 252.95 24.37 254.88 23.77 256.90 23.62
  Q 263.50 23.11 267.55 23.80
  Q 284.40 26.67 291.00 41.00
  Q 291.49 42.07 292.22 46.09
  Z
  M 261.8385 63.9599
  A 11.90 11.42 90.2 0 0 273.2999 52.0999
  A 11.90 11.42 90.2 0 0 261.9215 40.1601
  A 11.90 11.42 90.2 0 0 250.4601 52.0201
  A 11.90 11.42 90.2 0 0 261.8385 63.9599
  Z"
/>
<ellipse fill="#cadda5" cx="0.00" cy="0.00" transform="translate(216.02,36.05) rotate(91.0)" rx="10.74" ry="10.40"/>
<path fill="#cadda5" d="
  M 182.96 41.88
  L 178.86 41.73
  Q 180.87 41.00 182.83 41.44
  Q 183.08 41.50 182.96 41.88
  Z"
/>
<path fill="#cadda5" d="
  M 292.22 46.09
  L 293.00 50.64
  L 293.00 53.23
  L 291.78 60.25
  L 292.22 46.09
  Z"
/>
<path fill="#cadda5" d="
  M 20.94 50.69
  Q 20.92 62.91 21.08 75.00
  Q 21.14 79.16 19.76 78.67
  Q 20.57 65.37 20.14 51.73
  Q 20.13 51.36 20.30 51.06
  Q 20.77 50.20 20.94 50.69
  Z"
/>
<path fill="#cadda5" d="
  M 210.64 64.71
  L 211.30 64.77
  A 0.53 0.52 2.4 0 1 211.79 65.29
  L 211.85 79.89
  Q 211.85 80.38 211.42 80.61
  Q 211.00 80.83 210.45 80.66
  Q 211.70 73.06 210.64 64.71
  Z"
/>
<path fill="#cadda5" d="
  M 203.43 79.97
  Q 196.60 79.44 191.20 75.65
  L 203.43 79.97
  Z"
/>
<path fill="#68b654" d="
  M 131.90 116.05
  L 125.31 116.14
  A 0.35 0.35 0.0 0 1 124.96 115.79
  L 124.95 89.16
  A 0.35 0.35 0.0 0 1 125.30 88.81
  L 131.96 88.83
  A 0.35 0.35 0.0 0 1 132.23 88.97
  L 143.76 104.13
  A 0.35 0.35 0.0 0 0 144.39 103.91
  L 144.42 89.16
  A 0.35 0.35 0.0 0 1 144.77 88.81
  L 151.20 88.80
  A 0.35 0.35 0.0 0 1 151.55 89.15
  L 151.56 115.65
  A 0.35 0.35 0.0 0 1 151.21 116.00
  L 144.60 116.04
  A 0.35 0.35 0.0 0 1 144.32 115.90
  L 132.85 100.94
  A 0.35 0.35 0.0 0 0 132.22 101.15
  L 132.25 115.70
  A 0.35 0.35 0.0 0 1 131.90 116.05
  Z"
/>
<path fill="#68b654" d="
  M 244.92 88.79
  L 251.88 88.78
  A 0.78 0.78 0.0 0 1 252.52 90.01
  L 243.64 102.78
  A 0.78 0.78 0.0 0 0 243.50 103.22
  L 243.44 115.26
  A 0.78 0.78 0.0 0 1 242.68 116.04
  L 236.78 116.13
  A 0.78 0.78 0.0 0 1 235.99 115.35
  L 235.94 103.23
  A 0.78 0.78 0.0 0 0 235.80 102.79
  L 226.85 90.00
  A 0.78 0.78 0.0 0 1 227.50 88.78
  L 234.56 88.81
  A 0.78 0.78 0.0 0 1 235.20 89.15
  L 239.08 94.89
  A 0.78 0.78 0.0 0 0 240.37 94.90
  L 244.28 89.13
  A 0.78 0.78 0.0 0 1 244.92 88.79
  Z"
/>
<path fill="#68b654" d="
  M 161.24 109.08
  Q 161.51 110.80 162.89 111.35
  Q 165.86 112.55 167.79 109.68
  A 1.19 1.19 0.0 0 1 168.74 109.15
  L 173.01 108.99
  Q 173.58 108.97 173.73 109.52
  Q 174.34 111.73 172.89 113.27
  Q 167.95 118.51 160.70 116.03
  Q 153.79 113.66 154.37 105.89
  C 154.92 98.60 161.66 95.27 168.14 97.53
  Q 173.92 99.56 173.97 106.94
  Q 173.98 108.44 172.48 108.42
  L 161.97 108.25
  Q 161.11 108.23 161.24 109.08
  Z
  M 161.69 103.84
  L 167.33 103.86
  A 0.17 0.17 0.0 0 0 167.50 103.69
  L 167.50 103.58
  A 2.27 1.84 0.2 0 0 165.23 101.73
  L 163.79 101.73
  A 2.27 1.84 0.2 0 0 161.52 103.56
  L 161.52 103.67
  A 0.17 0.17 0.0 0 0 161.69 103.84
  Z"
/>
<path fill="#68b654" d="
  M 271.6197 106.7945
  A 10.82 9.98 -0.4 0 1 260.8697 116.8498
  A 10.82 9.98 -0.4 0 1 249.9803 106.9455
  A 10.82 9.98 -0.4 0 1 260.7303 96.8902
  A 10.82 9.98 -0.4 0 1 271.6197 106.7945
  Z
  M 264.59 106.80
  A 3.75 3.75 0.0 0 0 260.84 103.05
  A 3.75 3.75 0.0 0 0 257.09 106.80
  A 3.75 3.75 0.0 0 0 260.84 110.55
  A 3.75 3.75 0.0 0 0 264.59 106.80
  Z"
/>
<path fill="#68b654" d="
  M 196.53 97.57
  L 196.15 115.67
  Q 196.15 115.84 196.32 115.89
  Q 196.45 115.93 196.50 116.10
  L 191.24 116.00
  Q 190.78 115.99 190.54 115.59
  L 190.34 115.25
  Q 190.10 114.84 189.71 115.10
  Q 183.93 118.92 178.85 114.05
  C 176.83 112.11 175.73 108.63 176.08 105.88
  Q 177.04 98.33 184.23 97.12
  Q 186.70 96.71 189.36 98.30
  Q 189.85 98.59 190.21 98.16
  L 190.41 97.92
  Q 190.71 97.57 191.18 97.57
  L 196.53 97.57
  Z
  M 190.18 106.93
  A 3.67 3.67 0.0 0 0 186.51 103.26
  A 3.67 3.67 0.0 0 0 182.84 106.93
  A 3.67 3.67 0.0 0 0 186.51 110.60
  A 3.67 3.67 0.0 0 0 190.18 106.93
  Z"
/>
<path fill="#cadda5" d="
  M 196.53 97.57
  Q 196.87 97.75 196.87 98.00
  Q 196.90 106.50 196.88 115.00
  Q 196.88 115.45 196.50 116.10
  Q 196.45 115.93 196.32 115.89
  Q 196.15 115.84 196.15 115.67
  L 196.53 97.57
  Z"
/>
<rect fill="#68b654" x="200.37" y="97.52" width="6.68" height="18.56" rx="0.82"/>
<circle fill="#68b654" cx="211.63" cy="101.36" r="3.74"/>
<path fill="#68b654" d="
  M 292.66 97.56
  Q 291.16 104.39 293.00 110.94
  Q 292.99 110.79 293.00 110.64
  Q 292.01 115.32 287.40 116.37
  C 281.55 117.71 273.84 116.60 273.73 108.96
  Q 273.67 103.75 273.72 98.34
  Q 273.73 97.52 274.55 97.52
  L 280.00 97.52
  Q 280.73 97.53 280.73 98.25
  L 280.74 108.50
  Q 280.75 110.75 283.00 110.76
  L 283.92 110.77
  Q 286.37 110.78 286.36 108.33
  L 286.31 98.24
  A 0.60 0.59 90.0 0 1 286.90 97.64
  L 292.66 97.56
  Z"
/>
<path fill="#cadda5" d="
  M 292.66 97.56
  Q 292.83 97.72 293.00 97.87
  L 293.00 110.94
  Q 291.16 104.39 292.66 97.56
  Z"
/>
</svg>
